<mxfile host="app.diagrams.net" modified="2023-09-22T14:51:00.253Z" agent="Mozilla/5.0 (Windows NT 10.0; Win64; x64) AppleWebKit/537.36 (KHTML, like Gecko) Chrome/116.0.0.0 Safari/537.36" etag="KO1spBe0HgORejPrjKgV" version="21.7.5" type="device">
  <diagram name="Страница — 1" id="ZVZokKhL8xNZyqFxOt7J">
    <mxGraphModel dx="880" dy="478" grid="1" gridSize="10" guides="1" tooltips="1" connect="1" arrows="1" fold="1" page="1" pageScale="1" pageWidth="827" pageHeight="1169" math="0" shadow="0">
      <root>
        <mxCell id="0" />
        <mxCell id="1" parent="0" />
        <mxCell id="rmpSt8gliE7UaciX2MFk-12" style="edgeStyle=orthogonalEdgeStyle;rounded=0;orthogonalLoop=1;jettySize=auto;html=1;exitX=0.5;exitY=1;exitDx=0;exitDy=0;exitPerimeter=0;entryX=0.5;entryY=0;entryDx=0;entryDy=0;" edge="1" parent="1" source="rmpSt8gliE7UaciX2MFk-2" target="rmpSt8gliE7UaciX2MFk-4">
          <mxGeometry relative="1" as="geometry" />
        </mxCell>
        <mxCell id="rmpSt8gliE7UaciX2MFk-2" value="Начало" style="strokeWidth=1;html=1;shape=mxgraph.flowchart.terminator;whiteSpace=wrap;" vertex="1" parent="1">
          <mxGeometry x="240" y="20" width="100" height="60" as="geometry" />
        </mxCell>
        <mxCell id="rmpSt8gliE7UaciX2MFk-13" style="edgeStyle=orthogonalEdgeStyle;rounded=0;orthogonalLoop=1;jettySize=auto;html=1;exitX=0.5;exitY=1;exitDx=0;exitDy=0;" edge="1" parent="1" source="rmpSt8gliE7UaciX2MFk-4" target="rmpSt8gliE7UaciX2MFk-5">
          <mxGeometry relative="1" as="geometry" />
        </mxCell>
        <mxCell id="rmpSt8gliE7UaciX2MFk-4" value="Ввод буквы" style="shape=parallelogram;perimeter=parallelogramPerimeter;whiteSpace=wrap;html=1;fixedSize=1;" vertex="1" parent="1">
          <mxGeometry x="230" y="100" width="120" height="60" as="geometry" />
        </mxCell>
        <mxCell id="rmpSt8gliE7UaciX2MFk-14" style="edgeStyle=orthogonalEdgeStyle;rounded=0;orthogonalLoop=1;jettySize=auto;html=1;exitX=0.5;exitY=1;exitDx=0;exitDy=0;entryX=0.5;entryY=0;entryDx=0;entryDy=0;" edge="1" parent="1" source="rmpSt8gliE7UaciX2MFk-5" target="rmpSt8gliE7UaciX2MFk-6">
          <mxGeometry relative="1" as="geometry" />
        </mxCell>
        <mxCell id="rmpSt8gliE7UaciX2MFk-15" value=",,," style="edgeLabel;html=1;align=center;verticalAlign=middle;resizable=0;points=[];" vertex="1" connectable="0" parent="rmpSt8gliE7UaciX2MFk-14">
          <mxGeometry relative="1" as="geometry">
            <mxPoint y="-4" as="offset" />
          </mxGeometry>
        </mxCell>
        <mxCell id="rmpSt8gliE7UaciX2MFk-5" value="Обработка коммутационной панелью" style="rounded=0;whiteSpace=wrap;html=1;" vertex="1" parent="1">
          <mxGeometry x="230" y="180" width="120" height="60" as="geometry" />
        </mxCell>
        <mxCell id="rmpSt8gliE7UaciX2MFk-31" style="edgeStyle=orthogonalEdgeStyle;rounded=0;orthogonalLoop=1;jettySize=auto;html=1;exitX=0.5;exitY=1;exitDx=0;exitDy=0;entryX=0.5;entryY=0;entryDx=0;entryDy=0;" edge="1" parent="1" source="rmpSt8gliE7UaciX2MFk-6" target="rmpSt8gliE7UaciX2MFk-8">
          <mxGeometry relative="1" as="geometry" />
        </mxCell>
        <mxCell id="rmpSt8gliE7UaciX2MFk-32" value=",,," style="edgeLabel;html=1;align=center;verticalAlign=middle;resizable=0;points=[];" vertex="1" connectable="0" parent="rmpSt8gliE7UaciX2MFk-31">
          <mxGeometry x="-0.2" y="4" relative="1" as="geometry">
            <mxPoint x="-4" y="-1" as="offset" />
          </mxGeometry>
        </mxCell>
        <mxCell id="rmpSt8gliE7UaciX2MFk-6" value="Обработка роторами" style="rounded=0;whiteSpace=wrap;html=1;" vertex="1" parent="1">
          <mxGeometry x="230" y="270" width="120" height="60" as="geometry" />
        </mxCell>
        <mxCell id="rmpSt8gliE7UaciX2MFk-33" style="edgeStyle=orthogonalEdgeStyle;rounded=0;orthogonalLoop=1;jettySize=auto;html=1;exitX=0.5;exitY=1;exitDx=0;exitDy=0;entryX=0.5;entryY=0;entryDx=0;entryDy=0;" edge="1" parent="1" source="rmpSt8gliE7UaciX2MFk-8" target="rmpSt8gliE7UaciX2MFk-21">
          <mxGeometry relative="1" as="geometry" />
        </mxCell>
        <mxCell id="rmpSt8gliE7UaciX2MFk-8" value="Обработка отражателем" style="rounded=0;whiteSpace=wrap;html=1;" vertex="1" parent="1">
          <mxGeometry x="230" y="360" width="120" height="60" as="geometry" />
        </mxCell>
        <mxCell id="rmpSt8gliE7UaciX2MFk-40" style="edgeStyle=orthogonalEdgeStyle;rounded=0;orthogonalLoop=1;jettySize=auto;html=1;exitX=0.5;exitY=1;exitDx=0;exitDy=0;entryX=0.5;entryY=0;entryDx=0;entryDy=0;" edge="1" parent="1" source="rmpSt8gliE7UaciX2MFk-10" target="rmpSt8gliE7UaciX2MFk-39">
          <mxGeometry relative="1" as="geometry" />
        </mxCell>
        <mxCell id="rmpSt8gliE7UaciX2MFk-10" value="Обработка коммутационной панелью" style="rounded=0;whiteSpace=wrap;html=1;" vertex="1" parent="1">
          <mxGeometry x="520" y="190" width="120" height="60" as="geometry" />
        </mxCell>
        <mxCell id="rmpSt8gliE7UaciX2MFk-11" value="Конец" style="strokeWidth=1;html=1;shape=mxgraph.flowchart.terminator;whiteSpace=wrap;" vertex="1" parent="1">
          <mxGeometry x="530" y="430" width="100" height="60" as="geometry" />
        </mxCell>
        <mxCell id="rmpSt8gliE7UaciX2MFk-21" value="A" style="ellipse;whiteSpace=wrap;html=1;aspect=fixed;" vertex="1" parent="1">
          <mxGeometry x="265" y="440" width="50" height="50" as="geometry" />
        </mxCell>
        <mxCell id="rmpSt8gliE7UaciX2MFk-24" value="A" style="ellipse;whiteSpace=wrap;html=1;aspect=fixed;" vertex="1" parent="1">
          <mxGeometry x="555" y="20" width="50" height="50" as="geometry" />
        </mxCell>
        <mxCell id="rmpSt8gliE7UaciX2MFk-30" style="edgeStyle=orthogonalEdgeStyle;rounded=0;orthogonalLoop=1;jettySize=auto;html=1;exitX=0.5;exitY=1;exitDx=0;exitDy=0;" edge="1" parent="1" source="rmpSt8gliE7UaciX2MFk-28" target="rmpSt8gliE7UaciX2MFk-11">
          <mxGeometry relative="1" as="geometry" />
        </mxCell>
        <mxCell id="rmpSt8gliE7UaciX2MFk-28" value="Вывод буквы" style="shape=parallelogram;perimeter=parallelogramPerimeter;whiteSpace=wrap;html=1;fixedSize=1;" vertex="1" parent="1">
          <mxGeometry x="520" y="350" width="120" height="60" as="geometry" />
        </mxCell>
        <mxCell id="rmpSt8gliE7UaciX2MFk-34" style="edgeStyle=orthogonalEdgeStyle;rounded=0;orthogonalLoop=1;jettySize=auto;html=1;exitX=0.5;exitY=1;exitDx=0;exitDy=0;entryX=0.5;entryY=0;entryDx=0;entryDy=0;" edge="1" parent="1" target="rmpSt8gliE7UaciX2MFk-38">
          <mxGeometry relative="1" as="geometry">
            <mxPoint x="580" y="70" as="sourcePoint" />
          </mxGeometry>
        </mxCell>
        <mxCell id="rmpSt8gliE7UaciX2MFk-35" value=",,," style="edgeLabel;html=1;align=center;verticalAlign=middle;resizable=0;points=[];" vertex="1" connectable="0" parent="rmpSt8gliE7UaciX2MFk-34">
          <mxGeometry relative="1" as="geometry">
            <mxPoint y="-4" as="offset" />
          </mxGeometry>
        </mxCell>
        <mxCell id="rmpSt8gliE7UaciX2MFk-36" style="edgeStyle=orthogonalEdgeStyle;rounded=0;orthogonalLoop=1;jettySize=auto;html=1;exitX=0.5;exitY=1;exitDx=0;exitDy=0;entryX=0.5;entryY=0;entryDx=0;entryDy=0;" edge="1" parent="1" source="rmpSt8gliE7UaciX2MFk-38">
          <mxGeometry relative="1" as="geometry">
            <mxPoint x="580" y="190" as="targetPoint" />
          </mxGeometry>
        </mxCell>
        <mxCell id="rmpSt8gliE7UaciX2MFk-37" value=",,," style="edgeLabel;html=1;align=center;verticalAlign=middle;resizable=0;points=[];" vertex="1" connectable="0" parent="rmpSt8gliE7UaciX2MFk-36">
          <mxGeometry x="-0.2" y="4" relative="1" as="geometry">
            <mxPoint x="-4" y="-1" as="offset" />
          </mxGeometry>
        </mxCell>
        <mxCell id="rmpSt8gliE7UaciX2MFk-38" value="Обработка роторами" style="rounded=0;whiteSpace=wrap;html=1;" vertex="1" parent="1">
          <mxGeometry x="520" y="100" width="120" height="60" as="geometry" />
        </mxCell>
        <mxCell id="rmpSt8gliE7UaciX2MFk-41" style="edgeStyle=orthogonalEdgeStyle;rounded=0;orthogonalLoop=1;jettySize=auto;html=1;exitX=0.5;exitY=1;exitDx=0;exitDy=0;" edge="1" parent="1" source="rmpSt8gliE7UaciX2MFk-39" target="rmpSt8gliE7UaciX2MFk-28">
          <mxGeometry relative="1" as="geometry" />
        </mxCell>
        <mxCell id="rmpSt8gliE7UaciX2MFk-39" value="Поворот ротора" style="rounded=0;whiteSpace=wrap;html=1;" vertex="1" parent="1">
          <mxGeometry x="520" y="270" width="120" height="60" as="geometry" />
        </mxCell>
      </root>
    </mxGraphModel>
  </diagram>
</mxfile>
